inDegrees=yes
name=ik_S51_A03_T02
DataType=double
version=3
OpenSimVersion=4.3-2021-08-27-4bc7ad9
endheader
time	pelvis_tilt	pelvis_list	pelvis_rotation	pelvis_tx	pelvis_ty	pelvis_tz	hip_flexion_r	hip_adduction_r	hip_rotation_r	knee_angle_r	knee_angle_r_beta	ankle_angle_r	subtalar_angle_r	mtp_angle_r	hip_flexion_l	hip_adduction_l	hip_rotation_l	knee_angle_l	knee_angle_l_beta	ankle_angle_l	subtalar_angle_l	mtp_angle_l	lumbar_extension	lumbar_bending	lumbar_rotation	arm_flex_r	arm_add_r	arm_rot_r	elbow_flex_r	pro_sup_r	wrist_flex_r	wrist_dev_r	arm_flex_l	arm_add_l	arm_rot_l	elbow_flex_l	pro_sup_l	wrist_flex_l	wrist_dev_l
32.21999999999944	-1.312241312173226	-0.4448002093536633	-70.95585141579954	0	0.9399999999999999	0	17.49518657779768	-9.937454481765592	-12.2778225725376	14.16241163200446	0.2471807130012214	0	0	0	-0.9223691909878892	-6.929260004294934	-6.38624638868697	30.80832310808244	0.5377066752542915	0	0	0	0	0	0	43.03144263717329	-43.03144263717329	4.978391250785849	84.69722572372591	85.02160902269266	0	0	43.03144263717329	-43.03144263717329	4.978391250785849	84.69722572372591	85.02160902268892	0	0
32.23999999999944	-1.517858408927727	-0.4936942407885358	-70.94766439774848	0	0.9399999999999999	0	14.98472405239805	-6.146456889463964	-12.12362490087817	12.59796205874323	0.2198759169663927	0	0	0	2.569932599851451	-8.903607502443181	-4.32004936203785	41.45542885359378	0.7235337263214697	0	0	0	0	0	0	43.06177323271061	-43.06177323271061	4.978956394448168	84.70514440303954	85.02104387905136	0	0	43.06177323271061	-43.06177323271061	4.978956394448168	84.70514440303954	85.0210438790477	0	0
32.25999999999944	-1.744055569292901	-0.5860839146685857	-71.10342038841571	0	0.9399999999999999	0	14.32598732518204	-5.131287425501265	-12.5024589722808	12.33570748059691	0.2152987110993105	0	0	0	4.340252601416811	-9.641646491771233	-3.828729697501521	44.60743089799741	0.7785465400259056	0	0	0	0	0	0	43.06264734247233	-43.06264734247233	4.978975469401225	84.70541167868842	85.02102480409907	0	0	43.06264734247233	-43.06264734247233	4.978975469401225	84.70541167868842	85.0210248040954	0	0
32.27999999999945	-1.840401481356194	-0.6849088059657056	-71.29775716662097	0	0.9399999999999999	0	13.45157631914833	-4.261257912646582	-13.51257575181049	12.4829714534921	0.2178689522958994	0	0	0	4.172081706490208	-9.929920422582807	-4.058938833532658	44.9442081969754	0.7844244127390448	0	0	0	0	0	0	43.06283249041261	-43.06283249041261	4.978979505820814	84.70546823644955	85.02102076767966	0	0	43.06283249041261	-43.06283249041261	4.978979505820814	84.70546823644955	85.02102076767599	0	0
32.29999999999945	-1.750890893648466	-0.799129113694849	-71.66362316758476	0	0.9399999999999999	0	13.31649706193947	-4.220637197645316	-13.29088170990203	13.16695194960328	0.2298066639724638	0	0	0	7.422323179179327	-11.07472670907025	-6.368470950614319	47.79085713899227	0.8341078094256523	0	0	0	0	0	0	43.07415820139244	-43.07415820139244	4.979189227716856	84.70840681685415	85.02081104579138	0	0	43.07415820139244	-43.07415820139244	4.979189227716856	84.70840681685415	85.02081104578774	0	0
32.31999999999945	-1.619359490092761	-0.8799108028986714	-71.92061769482626	0	0.9399999999999999	0	12.39421759149512	-3.588323114782663	-13.88176322789437	13.20694659425902	0.2305047022048716	0	0	0	7.261397348671045	-11.01178827754034	-6.641896098694718	47.80889673529574	0.8344226597768786	0	0	0	0	0	0	43.07432231933466	-43.07432231933466	4.979192786625047	84.70845668377727	85.02080748688333	0	0	43.07432231933466	-43.07432231933466	4.979192786625047	84.70845668377727	85.02080748687969	0	0
32.33999999999946	-1.112535535823927	-1.312226703810951	-72.72054951433292	0	0.9399999999999999	0	9.944536666963852	-2.477924876618062	-14.85108523059661	12.26014702900413	0.2139799324347227	0	0	0	9.857397641841127	-10.96728388305527	-9.338157209299128	50.89410159279984	0.8882696426388477	0	0	0	0	0	0	43.09011195554839	-43.09011195554839	4.979482679441117	84.71251860155554	85.02051759407803	0	0	43.09011195554839	-43.09011195554839	4.979482679441117	84.71251860155554	85.02051759407438	0	0
32.35999999999946	-0.8083359704313161	-1.639763620410447	-73.18793430210367	0	0.9399999999999999	0	8.618417564455687	-1.932771035594573	-15.17143841711535	12.07221727929889	0.2106999395399175	0	0	0	10.49929250885873	-11.22239155884014	-10.84229093496741	42.42399294128423	0.7404383586682431	0	0	0	0	0	0	43.10934557089222	-43.10934557089222	4.97983252639288	84.71742058282177	85.02016774713915	0	0	43.10934557089222	-43.10934557089222	4.97983252639288	84.71742058282177	85.02016774713557	0	0
32.37999999999946	-0.7269052559223406	-1.786770777343026	-73.41005663837791	0	0.9399999999999999	0	8.419364086974651	-1.937523726876439	-15.14237476830056	12.47978844344723	0.2178133982904924	0	0	0	11.69715554651832	-10.69910482894343	-9.986567801422733	43.69790006523111	0.7626722323457278	0	0	0	0	0	0	43.11019653814633	-43.11019653814633	4.979850805151605	84.71767670207034	85.02014946838115	0	0	43.11019653814633	-43.11019653814633	4.979850805151605	84.71767670207034	85.02014946837757	0	0
32.39999999999947	-0.6237972347027073	-2.014262590356005	-73.8259445955586	0	0.9399999999999999	0	6.421111154665158	-0.4758648492402469	-15.45518938199817	11.15613860303025	0.1947113504317186	0	0	0	12.93141145755357	-9.752810872524378	-7.899796458626352	40.90119384534695	0.7138605005977446	0	0	0	0	0	0	43.11311368350974	-43.11311368350974	4.979906098006059	84.71845145472733	85.02009417552878	0	0	43.11311368350974	-43.11311368350974	4.979906098006059	84.71845145472733	85.02009417552514	0	0
32.41999999999947	-0.6779666093371242	-2.209230680850197	-74.43981781804834	0	0.9399999999999999	0	5.502792824231895	0.4134117413888343	-14.89053872800801	10.72942870011144	0.1872638576749199	0	0	0	13.89893920210155	-8.873489870822157	-5.953101418798409	37.46331534477715	0.6538582014792759	0	0	0	0	0	0	43.11722616433936	-43.11722616433936	4.979983140921492	84.71953096461921	85.02001713261623	0	0	43.11722616433936	-43.11722616433936	4.979983140921492	84.71953096461921	85.02001713261261	0	0
32.43999999999947	-0.7165621746419856	-2.237950085791399	-74.6803889920469	0	0.9399999999999999	0	4.823063691906	1.169327483840131	-14.55109999308318	10.29904392251594	0.179752226255415	0	0	0	15.028775173224	-7.982513933596525	-4.428585004718688	33.97096691194886	0.5929052226995583	0	0	0	0	0	0	43.12008926690714	-43.12008926690714	4.980036930119547	84.72028464811702	85.01996334342017	0	0	43.12008926690714	-43.12008926690714	4.980036930119547	84.72028464811702	85.01996334341659	0	0
32.45999999999948	-0.8208080958983301	-2.265434338808613	-75.20415640248345	0	0.9399999999999999	0	4.263032275533803	1.9515276396823	-13.84934173850578	9.788031220133929	0.1708333720793349	0	0	0	16.05207034040049	-7.199388471080752	-3.657910736533533	30.57494833438816	0.5336335170622296	0	0	0	0	0	0	43.12193246458674	-43.12193246458674	4.980072274417942	84.72077988562494	85.01992799912308	0	0	43.12193246458674	-43.12193246458674	4.980072274417942	84.72077988562494	85.0199279991195	0	0
32.47999999999948	-0.9135284527539248	-2.265281578390541	-75.79887410679657	0	0.9399999999999999	0	3.782430795663562	2.600408003189957	-13.31227441091933	9.736840429020246	0.1699399242277005	0	0	0	16.79968118379922	-6.582290995435105	-3.548575215655833	27.10967887430962	0.4731531555150529	0	0	0	0	0	0	43.12267213288406	-43.12267213288406	4.980088044592409	84.72100085489146	85.01991222894925	0	0	43.12267213288406	-43.12267213288406	4.980088044592409	84.72100085489146	85.01991222894567	0	0
32.49999999999948	-0.9353867903391386	-2.18649375472357	-76.52355229487939	0	0.9399999999999999	0	3.447266378733381	3.171114326266857	-12.56888524612307	9.438826498485085	0.1647385999230523	0	0	0	16.93222871572221	-6.24137135857153	-4.009189803342503	23.30332336410611	0.406719719360573	0	0	0	0	0	0	43.12359107960505	-43.12359107960505	4.980107605067266	84.72127493325165	85.01989266847519	0	0	43.12359107960505	-43.12359107960505	4.980107605067266	84.72127493325165	85.01989266847161	0	0
32.51999999999948	-0.9099226668349444	-2.108906032197311	-77.42737929532176	0	0.9399999999999999	0	3.070794620103392	3.670375865737407	-11.78785161005539	9.277254460640421	0.161918635883506	0	0	0	17.0618943912745	-5.919986446993972	-4.587131988443677	19.55229663792657	0.3412519526584363	0	0	0	0	0	0	43.12461333957726	-43.12461333957726	4.980129379728248	84.72158003644789	85.0198708938151	0	0	43.12461333957726	-43.12461333957726	4.980129379728248	84.72158003644789	85.01987089381153	0	0
